<svg xmlns="http://www.w3.org/2000/svg" viewBox="0 0 48 48" width="48" height="48">
  <path fill="#fbc02d" d="M43.6 20.5H42V20H24v8h11.3C34.7 33 30 36 24 36c-6.6 0-12-5.4-12-12s5.4-12 12-12c3.1 0 5.9 1.2 8 3.1l5.6-5.6C34.6 6 29.6 4 24 4 12.95 4 4 12.95 4 24s8.95 20 20 20 20-8.95 20-20c0-1.3-.12-2.6-.4-3.5z"/>
  <path fill="#e53935" d="M6.3 14.9l6.6 4.8C14 16.6 18.7 13.6 24 13.6c3.1 0 5.9 1.2 8 3.1l5.6-5.6C34.6 6 29.6 4 24 4 16.5 4 9.9 7.9 6.3 14.9z"/>
  <path fill="#4caf50" d="M24 44c5.9 0 11.3-2 15.4-5.4l-7.1-5.8C29.9 34.8 27.1 36 24 36c-6 0-10.7-3-13.1-7.6l-6.6 4.8C8.1 39.9 15.1 44 24 44z"/>
  <path fill="#1e88e5" d="M43.6 20.5H42V20H24v8h11.3c-1 2.7-3 5-6 6.6l7.1 5.8C41.9 36.4 44 30 44 24c0-1.3-.12-2.6-.4-3.5z"/>
</svg>
